<?xml version="1.0" encoding="UTF-8"?>
<svg id="Layer_1" data-name="Layer 1" xmlns="http://www.w3.org/2000/svg" width="4.25in" height="1.55in" viewBox="0 0 305.93 111.9">
  <defs>
    <style>
      .cls-1 {
        fill: #005c71;
      }

      .cls-2 {
        fill: #0093af;
      }

      .cls-3 {
        fill: #fff;
      }

      .cls-4 {
        fill: #367ba0;
      }
    </style>
  </defs>
  <circle class="cls-1" cx="53.37" cy="59.68" r="38.49"/>
  <g>
    <circle class="cls-2" cx="21.25" cy="46.71" r="2.71"/>
    <circle class="cls-2" cx="28.15" cy="47.6" r="2.71"/>
    <circle class="cls-2" cx="36.53" cy="47.13" r="2.71"/>
    <circle class="cls-2" cx="39.07" cy="53.6" r="2.71"/>
    <circle class="cls-2" cx="40.52" cy="61.34" r="2.71"/>
    <circle class="cls-2" cx="44.67" cy="68.06" r="2.71"/>
    <circle class="cls-2" cx="45.7" cy="74.85" r="2.71"/>
    <circle class="cls-2" cx="50.14" cy="80.15" r="2.71"/>
    <circle class="cls-2" cx="58.68" cy="81.24" r="2.71"/>
    <circle class="cls-2" cx="65.04" cy="75.97" r="2.71"/>
    <circle class="cls-2" cx="69.57" cy="68.84" r="2.71"/>
    <circle class="cls-2" cx="72.78" cy="60.89" r="2.71"/>
    <circle class="cls-2" cx="75.8" cy="54.45" r="2.71"/>
    <circle class="cls-2" cx="77.27" cy="48.14" r="2.71"/>
    <circle class="cls-2" cx="85.01" cy="46.58" r="2.71"/>
  </g>
  <g>
    <path class="cls-1" d="m98.26,96.58V10.39c0-1,.81-1.81,1.81-1.81h14.47c1,0,1.81.81,1.81,1.81v86.19c0,1-.81,1.81-1.81,1.81h-14.47c-1,0-1.81-.81-1.81-1.81Z"/>
    <path class="cls-1" d="m126.65,77.86v-23.18c0-6.79,1.93-12.07,5.79-15.84,3.86-3.77,9.3-5.66,16.34-5.66s12.65,1.62,16.51,4.85c3.85,3.23,5.78,8.04,5.78,14.43v4.96c0,1-.81,1.81-1.81,1.81h-14.47c-1,0-1.81-.81-1.81-1.81v-5.51c0-2.48-.34-4.17-1.01-5.08-.67-.91-1.72-1.37-3.14-1.37s-2.45.56-3.11,1.68-.98,3.05-.98,5.79v26.56c0,2.78.34,4.69,1.01,5.74.67,1.05,1.7,1.57,3.08,1.57s2.46-.47,3.14-1.42c.67-.95,1.01-2.53,1.01-4.74v-6.55c0-1,.81-1.81,1.81-1.81h14.47c1,0,1.81.81,1.81,1.81v5.94c0,6.36-1.95,11.2-5.84,14.52-3.89,3.32-9.38,4.98-16.45,4.98s-12.48-1.9-16.34-5.71c-3.86-3.81-5.79-9.13-5.79-15.95Z"/>
    <path class="cls-4" d="m177.55,34.26h13.53c.91,0,1.68.68,1.79,1.58l3.19,24.93c.27,2.12,3.34,2.1,3.59-.02l2.96-24.89c.11-.91.88-1.6,1.8-1.6h13.46c1.14,0,2,1.05,1.77,2.17l-12.32,60.52c-.17.84-.91,1.45-1.77,1.45h-15.94c-.86,0-1.61-.61-1.77-1.46l-12.06-60.52c-.22-1.12.63-2.16,1.77-2.16Z"/>
    <path class="cls-4" d="m226.64,21.67v-9.11c0-1,.81-1.81,1.81-1.81h14.58c1,0,1.81.81,1.81,1.81v9.11c0,1-.81,1.81-1.81,1.81h-14.58c-1,0-1.81-.81-1.81-1.81Zm.11,74.91v-60.52c0-1,.81-1.81,1.81-1.81h14.47c1,0,1.81.81,1.81,1.81v60.52c0,1-.81,1.81-1.81,1.81h-14.47c-1,0-1.81-.81-1.81-1.81Z"/>
    <path class="cls-4" d="m254.32,96.58v-9.64c0-.26.06-.51.16-.75l16.33-35.94c.54-1.2-.33-2.56-1.65-2.56h-11.68c-1,0-1.81-.81-1.81-1.81v-9.81c0-1,.81-1.81,1.81-1.81h31.43c1,0,1.81.81,1.81,1.81v8.98c0,.25-.05.5-.16.74l-16.31,36.63c-.53,1.2.34,2.55,1.65,2.55h13.28c1,0,1.81.81,1.81,1.81v9.81c0,1-.81,1.81-1.81,1.81h-33.05c-1,0-1.81-.81-1.81-1.81Z"/>
  </g>
  <g>
    <path class="cls-3" d="m18.95,45.47c0-.65-.24-1.24-.62-1.71-.64,1.42-1.21,2.87-1.68,4.38,1.3-.19,2.31-1.31,2.31-2.67Z"/>
    <circle class="cls-3" cx="23.55" cy="45.15" r="2.71"/>
    <path class="cls-3" d="m34.23,45.88c0-1.49-1.21-2.71-2.71-2.71s-2.71,1.21-2.71,2.71,1.21,2.71,2.71,2.71,2.71-1.21,2.71-2.71Z"/>
    <circle class="cls-3" cx="34.06" cy="52.35" r="2.71"/>
    <path class="cls-3" d="m39.43,58.99c0-1.49-1.21-2.71-2.71-2.71s-2.71,1.21-2.71,2.71,1.21,2.71,2.71,2.71,2.71-1.21,2.71-2.71Z"/>
    <path class="cls-3" d="m42.37,66.82c0-1.49-1.21-2.71-2.71-2.71s-2.71,1.21-2.71,2.71,1.21,2.71,2.71,2.71,2.71-1.21,2.71-2.71Z"/>
    <path class="cls-3" d="m40.69,70.9c-1.49,0-2.71,1.21-2.71,2.71s1.21,2.71,2.71,2.71,2.71-1.21,2.71-2.71-1.21-2.71-2.71-2.71Z"/>
    <path class="cls-3" d="m46.59,75.17c-1.5,0-2.71,1.21-2.71,2.71s1.21,2.71,2.71,2.71,2.71-1.21,2.71-2.71-1.21-2.71-2.71-2.71Z"/>
    <circle class="cls-3" cx="53.67" cy="80" r="2.71"/>
    <path class="cls-3" d="m60.14,72.92c-1.49,0-2.71,1.21-2.71,2.71s1.21,2.71,2.71,2.71,2.71-1.21,2.71-2.71-1.21-2.71-2.71-2.71Z"/>
    <path class="cls-3" d="m65.04,66.46c-1.49,0-2.71,1.21-2.71,2.71s1.21,2.71,2.71,2.71,2.71-1.21,2.71-2.71-1.21-2.71-2.71-2.71Z"/>
    <path class="cls-3" d="m68.35,58.79c-1.49,0-2.71,1.21-2.71,2.71s1.21,2.71,2.71,2.71,2.71-1.21,2.71-2.71-1.21-2.71-2.71-2.71Z"/>
    <circle class="cls-3" cx="70.79" cy="53.21" r="2.71"/>
    <path class="cls-3" d="m72.26,44.19c-1.49,0-2.71,1.21-2.71,2.71s1.21,2.71,2.71,2.71,2.71-1.21,2.71-2.71-1.21-2.71-2.71-2.71Z"/>
    <path class="cls-3" d="m80,42.63c-1.5,0-2.71,1.21-2.71,2.71s1.21,2.71,2.71,2.71,2.71-1.21,2.71-2.71-1.21-2.71-2.71-2.71Z"/>
    <path class="cls-3" d="m85.55,44.6c0,1.49,1.21,2.71,2.71,2.71.52,0,1-.15,1.41-.41-.6-1.69-1.31-3.33-2.12-4.9-1.15.31-2,1.35-2,2.6Z"/>
  </g>
</svg>