<?xml version="1.0" encoding="UTF-8"?>
<svg id="Layer_1" data-name="Layer 1" xmlns="http://www.w3.org/2000/svg" width="1.07in" height="1.07in" viewBox="0 0 76.98 76.98">
  <defs>
    <style>
      .cls-1 {
        fill: #005c71;
      }

      .cls-2 {
        fill: #0093af;
      }

      .cls-3 {
        fill: #fff;
      }
    </style>
  </defs>
  <circle class="cls-1" cx="38.49" cy="38.49" r="38.49"/>
  <g>
    <circle class="cls-2" cx="6.37" cy="25.53" r="2.71"/>
    <circle class="cls-2" cx="13.27" cy="26.41" r="2.71"/>
    <circle class="cls-2" cx="21.65" cy="25.94" r="2.71"/>
    <circle class="cls-2" cx="24.19" cy="32.41" r="2.71"/>
    <circle class="cls-2" cx="25.64" cy="40.15" r="2.71"/>
    <circle class="cls-2" cx="29.79" cy="46.87" r="2.71"/>
    <circle class="cls-2" cx="30.82" cy="53.66" r="2.71"/>
    <circle class="cls-2" cx="35.26" cy="58.97" r="2.71"/>
    <circle class="cls-2" cx="43.8" cy="60.05" r="2.71"/>
    <circle class="cls-2" cx="50.16" cy="54.78" r="2.71"/>
    <circle class="cls-2" cx="54.69" cy="47.66" r="2.71"/>
    <circle class="cls-2" cx="57.9" cy="39.7" r="2.71"/>
    <circle class="cls-2" cx="60.92" cy="33.27" r="2.71"/>
    <circle class="cls-2" cx="62.39" cy="26.96" r="2.71"/>
    <circle class="cls-2" cx="70.13" cy="25.39" r="2.71"/>
  </g>
  <g>
    <path class="cls-3" d="m4.07,24.28c0-.65-.24-1.24-.62-1.71-.64,1.42-1.21,2.87-1.68,4.38,1.3-.19,2.31-1.31,2.31-2.67Z"/>
    <circle class="cls-3" cx="8.67" cy="23.96" r="2.71"/>
    <path class="cls-3" d="m19.35,24.69c0-1.49-1.21-2.71-2.71-2.71s-2.71,1.21-2.71,2.71,1.21,2.71,2.71,2.71,2.71-1.21,2.71-2.71Z"/>
    <circle class="cls-3" cx="19.18" cy="31.16" r="2.71"/>
    <path class="cls-3" d="m24.55,37.8c0-1.49-1.21-2.71-2.71-2.71s-2.71,1.21-2.71,2.71,1.21,2.71,2.71,2.71,2.71-1.21,2.71-2.71Z"/>
    <path class="cls-3" d="m27.49,45.63c0-1.49-1.21-2.71-2.71-2.71s-2.71,1.21-2.71,2.71,1.21,2.71,2.71,2.71,2.71-1.21,2.71-2.71Z"/>
    <path class="cls-3" d="m25.81,49.71c-1.49,0-2.71,1.21-2.71,2.71s1.21,2.71,2.71,2.71,2.71-1.21,2.71-2.71-1.21-2.71-2.71-2.71Z"/>
    <path class="cls-3" d="m31.71,53.99c-1.5,0-2.71,1.21-2.71,2.71s1.21,2.71,2.71,2.71,2.71-1.21,2.71-2.71-1.21-2.71-2.71-2.71Z"/>
    <circle class="cls-3" cx="38.8" cy="58.81" r="2.71"/>
    <path class="cls-3" d="m45.26,51.73c-1.49,0-2.71,1.21-2.71,2.71s1.21,2.71,2.71,2.71,2.71-1.21,2.71-2.71-1.21-2.71-2.71-2.71Z"/>
    <path class="cls-3" d="m50.16,45.27c-1.49,0-2.71,1.21-2.71,2.71s1.21,2.71,2.71,2.71,2.71-1.21,2.71-2.71-1.21-2.71-2.71-2.71Z"/>
    <path class="cls-3" d="m53.47,37.6c-1.49,0-2.71,1.21-2.71,2.71s1.21,2.71,2.71,2.71,2.71-1.21,2.71-2.71-1.21-2.71-2.71-2.71Z"/>
    <circle class="cls-3" cx="55.91" cy="32.02" r="2.71"/>
    <path class="cls-3" d="m57.38,23c-1.49,0-2.71,1.21-2.71,2.71s1.21,2.71,2.71,2.71,2.71-1.21,2.71-2.71-1.21-2.71-2.71-2.71Z"/>
    <path class="cls-3" d="m65.12,21.44c-1.5,0-2.71,1.21-2.71,2.71s1.21,2.71,2.71,2.71,2.71-1.21,2.71-2.71-1.21-2.71-2.71-2.71Z"/>
    <path class="cls-3" d="m70.67,23.41c0,1.49,1.21,2.71,2.71,2.71.52,0,1-.15,1.41-.41-.6-1.69-1.31-3.33-2.12-4.9-1.15.31-2,1.35-2,2.6Z"/>
  </g>
</svg>